PathFileType	4	(X/Y/Z)	D:\TRACE\v60_Jaco2_6-2-23\JustBodyDRS_Motion2_3-v60.trc
DataRate	CameraRate	NumFrames	NumMarkers	Units	OrigDataRate	OrigDataStartFrame	OrigNumFrames
100.00	100.00	      13	9	mm	100.00	5980	      6834
Frame#	Time	front left toe			Front right toe			aft left toe			aft right toe			Arm			FL body			FR body			AL Body			AR Body			
		X1	Y1	Z1	X2	Y2	Z2	X3	Y3	Z3	X4	Y4	Z4	X5	Y5	Z5	X6	Y6	Z6	X7	Y7	Z7	X8	Y8	Z8	X9	Y9	Z9	

5980	59.790	-211.45515	0.86668	-224.93378	183.36780	36.65864	-223.12823	-135.01218	77.72395	416.06567	185.27361	42.27692	385.45590	-149.88544	1173.01599	-404.75757	-95.36729	545.37585	-362.88718	64.55512	552.19434	-367.54620	-67.61452	598.51886	581.86963	89.00184	599.73627	578.22748	
5981	59.800	-210.54385	1.03222	-224.69807	183.65547	49.92564	-224.19974	-138.11635	90.41342	413.64029	186.21696	41.98805	385.80328	-149.68503	1173.51123	-403.89392	-94.18053	545.14447	-362.80930	64.97607	552.17084	-367.72574	-67.77834	598.65314	581.70117	88.75569	599.85651	578.18439	
5982	59.810	-209.56178	1.53062	-224.63594	184.66731	63.80365	-225.95042	-142.94917	103.13007	411.27734	187.09689	41.01751	385.94614	-149.32060	1174.22119	-403.65384	-94.16672	545.21906	-362.91544	65.33734	552.24609	-367.89481	-67.87081	598.28058	581.53473	88.65760	599.37970	577.90332	
5983	59.820	-208.27164	1.39954	-224.44855	185.52666	77.31236	-227.26288	-150.00914	117.47498	408.69962	188.47849	40.65367	386.06430	-149.20236	1174.79565	-403.52948	-94.06418	545.43066	-362.87671	65.55973	552.49060	-367.89001	-68.08006	597.77185	581.49780	88.69437	599.08020	577.54645	
5984	59.830	-207.54033	1.50297	-224.21217	185.63960	90.69973	-228.59486	-155.12842	129.48111	406.78775	189.47514	39.91042	386.27731	-148.29549	1174.87463	-403.45828	-93.73305	545.88092	-362.76331	65.69187	552.80566	-367.73157	-67.81097	597.11597	581.64233	88.70192	598.14050	577.64185	
5985	59.840	-206.55182	1.96158	-223.84824	185.50337	103.29171	-229.80402	-159.49962	141.66589	405.09601	191.03329	39.49913	386.65262	-147.18806	1174.97144	-401.94678	-93.71152	546.37158	-362.58820	65.71293	552.98798	-367.58157	-67.39233	596.65100	581.93921	89.01600	597.04047	577.86304	
5986	59.850	-205.39035	2.33737	-223.84067	183.62390	115.13740	-231.15857	-163.21072	152.98575	403.43216	191.85587	38.78917	386.59296	-146.08102	1175.18079	-401.07596	-94.39484	547.33807	-362.88837	66.08801	553.19427	-367.31024	-67.10899	596.21631	581.96588	89.50387	596.58392	578.30524	
5987	59.860	-204.25438	2.48909	-223.50090	181.73457	125.80405	-232.64691	-166.57503	163.25496	402.08075	193.07549	38.27348	387.09225	-145.36259	1176.13464	-400.01907	-93.16943	547.78168	-362.08591	66.50918	553.63196	-366.88062	-66.62589	595.56793	582.32764	89.80558	595.87225	578.63013	
5988	59.870	-203.45607	3.26885	-223.33926	179.79617	133.93581	-233.30132	-169.67169	171.61967	400.64163	194.22662	37.30446	387.43683	-144.03418	1177.44104	-398.66245	-93.36387	548.39740	-361.90842	66.43801	554.10846	-366.60309	-66.48530	594.91473	582.85834	89.94798	595.24628	578.99213	
5989	59.880	-202.10533	3.39485	-222.98209	178.79553	138.22041	-232.30057	-172.78018	176.26244	400.41354	195.17868	36.74863	387.56903	-142.57335	1178.95752	-397.21307	-93.27187	549.10809	-361.32584	66.88583	554.50214	-366.00339	-66.19664	594.62134	583.68109	90.46964	594.35217	580.00891	
5990	59.890	-200.99274	3.70160	-222.44586	174.80038	139.26169	-231.64403	-178.01329	179.59270	400.41400	196.55766	36.15433	387.87039	-140.94727	1179.57727	-396.30887	-92.18410	549.42493	-360.31943	67.52911	554.94867	-365.37366	-65.57349	594.33728	584.54614	91.17572	594.27545	580.68878	
5991	59.900	-200.07715	4.56537	-222.32352	173.32309	136.57390	-230.06439	-182.86896	178.41791	401.67444	197.41441	35.41951	388.12177	-139.20737	1180.14331	-394.61981	-92.64506	550.51721	-359.67261	67.66500	555.32306	-364.65558	-64.98059	594.26459	585.40637	91.65033	593.36530	581.50879	
5992	59.910	-198.89522	4.79563	-221.98003	171.43193	131.31906	-228.28824	-187.67569	175.77612	403.54172	199.17990	34.62362	388.41492	-137.17470	1181.20728	-392.18469	-91.96492	551.29498	-358.22455	67.91240	555.70184	-363.67136	-64.29492	594.01019	586.35333	92.23531	592.89087	582.65106	
